<svg width="128" height="128" viewBox="0 0 128 128" fill="none" xmlns="http://www.w3.org/2000/svg">
<g clip-path="url(#clip0_1_4)">
<rect width="128" height="128" fill="white"/>
<rect width="128" height="128" fill="#15151E"/>
<path d="M11.5537 8.77393H47.1641V18.0293H21.5146V35.876H43.9683V45.1313H21.5146V68H11.5537V8.77393ZM60.2627 18.0293H49.3887L52.1694 8.77393H70.1821V68H60.2627V18.0293Z" fill="#FF0000"/>
<path d="M59 68V63.5V58.5L0 106.084V111.538V116L59 68Z" fill="white"/>
<path d="M71.5 59V49.5L128 1V11.9076L71.5 59Z" fill="white"/>
<path d="M59 68V63.5V58.5L0 106.084V111.538V116L59 68Z" stroke="white"/>
<path d="M71.5 59V49.5L128 1V11.9076L71.5 59Z" stroke="white"/>
<path d="M59 85V80.5V76L0.5 124.5V128H7L59 85Z" fill="white"/>
<path d="M72 78.5V67.5L128 20V30.9076L72 78.5Z" fill="white"/>
<path d="M59 85V80.5V76L0.5 124.5V128H7L59 85Z" stroke="white"/>
<path d="M72 78.5V67.5L128 20V30.9076L72 78.5Z" stroke="white"/>
<path d="M61 68V122" stroke="#FF0000"/>
<path d="M60.2314 61.3804H81.9814C84.2188 61.3804 86.3569 61.5361 88.396 61.8477C90.4634 62.1592 92.375 62.7114 94.1309 63.5044C95.8867 64.2974 97.4868 65.4019 98.9312 66.8179C100.375 68.2339 101.607 70.0464 102.627 72.2554C103.646 74.4644 104.425 77.1265 104.963 80.2417C105.53 83.3569 105.813 87.0103 105.813 91.2017C105.813 95.5347 105.558 99.3154 105.048 102.544C104.539 105.744 103.802 108.491 102.839 110.785C101.876 113.051 100.701 114.92 99.3135 116.393C97.9258 117.837 96.3398 118.984 94.5557 119.833C92.7998 120.655 90.8599 121.221 88.7358 121.533C86.6401 121.844 84.3887 122 81.9814 122H60.2314V61.3804ZM79.2202 112.527C80.6646 112.527 82.0664 112.499 83.4258 112.442C84.7852 112.357 86.0454 112.102 87.2065 111.677C88.396 111.252 89.4722 110.615 90.4351 109.766C91.4263 108.888 92.2617 107.656 92.9414 106.07C93.6494 104.484 94.1875 102.487 94.5557 100.08C94.9521 97.6445 95.1504 94.6567 95.1504 91.1167C95.1504 87.8315 94.9663 85.0562 94.5981 82.7905C94.23 80.4966 93.7061 78.5991 93.0264 77.0981C92.3467 75.5972 91.5254 74.436 90.5625 73.6147C89.6279 72.7651 88.5659 72.1421 87.3765 71.7456C86.187 71.3208 84.8984 71.0659 83.5107 70.981C82.1514 70.896 80.7212 70.8535 79.2202 70.8535H70.4268V112.527H79.2202Z" fill="#FF0000"/>
<path d="M92.769 122.953C93.6187 122.069 94.3364 121.295 94.9224 120.631C95.5132 119.967 95.9917 119.381 96.3579 118.873C96.7241 118.36 96.9902 117.909 97.1562 117.518C97.3223 117.123 97.4053 116.754 97.4053 116.412C97.4053 116.173 97.3735 115.963 97.3101 115.782C97.2515 115.602 97.1465 115.453 96.9951 115.335C96.8438 115.213 96.6362 115.123 96.3726 115.064C96.1138 115.001 95.7866 114.969 95.3911 114.969C95.1128 114.969 94.8369 114.984 94.5635 115.013C94.2949 115.038 94.0508 115.064 93.8311 115.094C93.5723 115.128 93.3232 115.167 93.084 115.211V113.863C93.3232 113.766 93.5942 113.675 93.897 113.592C94.1558 113.524 94.4609 113.463 94.8125 113.409C95.1689 113.351 95.562 113.321 95.9917 113.321C96.5874 113.321 97.0903 113.385 97.5005 113.512C97.9155 113.634 98.25 113.817 98.5039 114.061C98.7627 114.305 98.9482 114.613 99.0605 114.984C99.1729 115.355 99.229 115.785 99.229 116.273C99.229 116.649 99.1655 117.049 99.0386 117.474C98.9116 117.899 98.6968 118.36 98.394 118.858C98.0962 119.352 97.6982 119.889 97.2002 120.47C96.707 121.046 96.0942 121.673 95.3618 122.352V122.367H99.229V124H92.769V122.953ZM104.727 124.227C104.268 124.227 103.85 124.188 103.474 124.11C103.103 124.037 102.773 123.915 102.485 123.744C102.197 123.573 101.948 123.348 101.738 123.07C101.528 122.787 101.355 122.44 101.218 122.03C101.086 121.62 100.986 121.139 100.918 120.587C100.854 120.03 100.823 119.393 100.823 118.675C100.823 117.596 100.896 116.71 101.042 116.017C101.194 115.323 101.428 114.779 101.746 114.383C102.063 113.983 102.466 113.707 102.954 113.556C103.447 113.399 104.038 113.321 104.727 113.321C105.41 113.321 105.999 113.399 106.492 113.556C106.985 113.707 107.388 113.983 107.7 114.383C108.018 114.779 108.25 115.323 108.396 116.017C108.547 116.71 108.623 117.596 108.623 118.675C108.623 119.393 108.589 120.03 108.521 120.587C108.457 121.139 108.357 121.62 108.22 122.03C108.088 122.44 107.917 122.787 107.708 123.07C107.498 123.348 107.249 123.573 106.96 123.744C106.672 123.915 106.343 124.037 105.972 124.11C105.601 124.188 105.186 124.227 104.727 124.227ZM104.727 122.608C105.142 122.608 105.481 122.53 105.745 122.374C106.008 122.213 106.213 121.971 106.36 121.649C106.511 121.327 106.614 120.919 106.667 120.426C106.721 119.933 106.748 119.349 106.748 118.675C106.748 118.001 106.721 117.43 106.667 116.961C106.614 116.488 106.511 116.104 106.36 115.812C106.213 115.514 106.008 115.299 105.745 115.167C105.481 115.035 105.142 114.969 104.727 114.969C104.312 114.969 103.972 115.035 103.708 115.167C103.45 115.299 103.245 115.511 103.093 115.804C102.947 116.097 102.847 116.48 102.793 116.954C102.739 117.423 102.712 117.997 102.712 118.675C102.712 119.349 102.739 119.935 102.793 120.433C102.847 120.926 102.947 121.334 103.093 121.656C103.245 121.979 103.45 122.218 103.708 122.374C103.972 122.53 104.312 122.608 104.727 122.608ZM109.785 122.953C110.634 122.069 111.352 121.295 111.938 120.631C112.529 119.967 113.007 119.381 113.374 118.873C113.74 118.36 114.006 117.909 114.172 117.518C114.338 117.123 114.421 116.754 114.421 116.412C114.421 116.173 114.389 115.963 114.326 115.782C114.267 115.602 114.162 115.453 114.011 115.335C113.859 115.213 113.652 115.123 113.388 115.064C113.129 115.001 112.802 114.969 112.407 114.969C112.128 114.969 111.853 114.984 111.579 115.013C111.311 115.038 111.066 115.064 110.847 115.094C110.588 115.128 110.339 115.167 110.1 115.211V113.863C110.339 113.766 110.61 113.675 110.913 113.592C111.171 113.524 111.477 113.463 111.828 113.409C112.185 113.351 112.578 113.321 113.007 113.321C113.603 113.321 114.106 113.385 114.516 113.512C114.931 113.634 115.266 113.817 115.52 114.061C115.778 114.305 115.964 114.613 116.076 114.984C116.188 115.355 116.245 115.785 116.245 116.273C116.245 116.649 116.181 117.049 116.054 117.474C115.927 117.899 115.712 118.36 115.41 118.858C115.112 119.352 114.714 119.889 114.216 120.47C113.723 121.046 113.11 121.673 112.377 122.352V122.367H116.245V124H109.785V122.953ZM117.472 122.953C118.322 122.069 119.04 121.295 119.625 120.631C120.216 119.967 120.695 119.381 121.061 118.873C121.427 118.36 121.693 117.909 121.859 117.518C122.025 117.123 122.108 116.754 122.108 116.412C122.108 116.173 122.077 115.963 122.013 115.782C121.955 115.602 121.85 115.453 121.698 115.335C121.547 115.213 121.339 115.123 121.076 115.064C120.817 115.001 120.49 114.969 120.094 114.969C119.816 114.969 119.54 114.984 119.267 115.013C118.998 115.038 118.754 115.064 118.534 115.094C118.275 115.128 118.026 115.167 117.787 115.211V113.863C118.026 113.766 118.297 113.675 118.6 113.592C118.859 113.524 119.164 113.463 119.516 113.409C119.872 113.351 120.265 113.321 120.695 113.321C121.291 113.321 121.793 113.385 122.204 113.512C122.619 113.634 122.953 113.817 123.207 114.061C123.466 114.305 123.651 114.613 123.764 114.984C123.876 115.355 123.932 115.785 123.932 116.273C123.932 116.649 123.869 117.049 123.742 117.474C123.615 117.899 123.4 118.36 123.097 118.858C122.799 119.352 122.401 119.889 121.903 120.47C121.41 121.046 120.797 121.673 120.065 122.352V122.367H123.932V124H117.472V122.953Z" fill="white"/>
</g>
<defs>
<clipPath id="clip0_1_4">
<rect width="128" height="128" fill="white"/>
</clipPath>
</defs>
</svg>
