<svg width="162" height="260" viewBox="0 0 162 260" fill="none" xmlns="http://www.w3.org/2000/svg">
<rect y="26" width="162" height="234" fill="#D9D9D9"/>
<circle cx="114" cy="53" r="12.5" fill="black" stroke="#FF0000"/>
<path d="M141.061 13.0607C141.646 12.4749 141.646 11.5251 141.061 10.9393L131.515 1.3934C130.929 0.807612 129.979 0.807612 129.393 1.3934C128.808 1.97918 128.808 2.92893 129.393 3.51472L137.879 12L129.393 20.4853C128.808 21.0711 128.808 22.0208 129.393 22.6066C129.979 23.1924 130.929 23.1924 131.515 22.6066L141.061 13.0607ZM84 13.5H140V10.5H84V13.5Z" fill="black"/>
<path d="M113.54 60.4596C113.794 60.7135 114.206 60.7135 114.46 60.4596L118.596 56.323C118.85 56.0692 118.85 55.6576 118.596 55.4038C118.342 55.15 117.931 55.15 117.677 55.4038L114 59.0808L110.323 55.4038C110.069 55.15 109.658 55.15 109.404 55.4038C109.15 55.6576 109.15 56.0692 109.404 56.323L113.54 60.4596ZM113.35 45V60H114.65V45H113.35Z" fill="#FF0000"/>
</svg>
