<svg width="58" height="68" viewBox="0 0 58 68" fill="none" xmlns="http://www.w3.org/2000/svg">
<circle cx="30" cy="53" r="12.5" fill="black" stroke="#FF0000"/>
<path d="M57.0607 13.0607C57.6464 12.4749 57.6464 11.5251 57.0607 10.9393L47.5147 1.3934C46.9289 0.807612 45.9792 0.807612 45.3934 1.3934C44.8076 1.97918 44.8076 2.92893 45.3934 3.51472L53.8787 12L45.3934 20.4853C44.8076 21.0711 44.8076 22.0208 45.3934 22.6066C45.9792 23.1924 46.9289 23.1924 47.5147 22.6066L57.0607 13.0607ZM0 13.5H56V10.5H0V13.5Z" fill="black"/>
<path d="M29.5404 60.4596C29.7942 60.7135 30.2058 60.7135 30.4596 60.4596L34.5962 56.323C34.85 56.0692 34.85 55.6576 34.5962 55.4038C34.3424 55.15 33.9308 55.15 33.677 55.4038L30 59.0808L26.323 55.4038C26.0692 55.15 25.6576 55.15 25.4038 55.4038C25.15 55.6576 25.15 56.0692 25.4038 56.323L29.5404 60.4596ZM29.35 45V60H30.65V45H29.35Z" fill="#FF0000"/>
</svg>
