<svg width="51" height="24" viewBox="0 0 51 24" fill="none" xmlns="http://www.w3.org/2000/svg">
<path d="M15.521 22.1027C15.3759 20.8714 14.2545 5.93735 14.2545 5.23606C14.2545 4.67709 14.3302 4.65149 15.9824 4.65149H17.7103L17.8072 5.5141C17.8604 5.98853 18.0026 8.70575 18.123 11.5524C18.2435 14.399 18.3822 16.7843 18.4313 16.853C18.5801 17.0613 18.7551 16.5327 20.5417 10.4806L22.2623 4.65163L24.0385 4.65156L25.8146 4.65149L25.9129 5.5141C25.9669 5.98853 26.1023 8.228 26.2136 10.4907C26.4623 15.5449 26.5852 16.908 26.7775 16.7445C26.8594 16.6749 27.6963 13.9255 28.6374 10.6347L30.3485 4.65149H32.14H33.9315L33.4871 6.04493C33.2426 6.81133 31.9287 10.9319 30.5673 15.2019L28.092 22.9654H26.2055H24.3191L24.1834 21.1738C23.6287 13.8515 23.3944 11.4531 23.2269 11.3827C23.1209 11.3382 22.2093 13.9239 21.2011 17.1287L19.3679 22.9556L17.4953 22.9605L15.6227 22.9654L15.521 22.1027Z" fill="#FFCC33"/>
<path d="M7.30797 22.9899C5.61593 22.5011 4.79949 21.2782 4.79949 19.2324C4.79949 18.3385 5.25656 14.0635 5.85473 9.36261L5.9476 8.63271H3.91676C1.80919 8.63271 0.9183 8.30129 0.674241 7.42644C0.608315 7.19013 0.554382 5.63302 0.554382 3.96619V0.935584H1.80861H3.06285V2.6608V4.38602H4.79949C6.29231 4.38602 6.53613 4.32386 6.53613 3.94328C6.53613 3.69977 6.63187 2.74427 6.74889 1.81994L6.96166 0.139331H8.78797C10.435 0.139331 10.6049 0.184923 10.5189 0.603811C10.4665 0.859277 10.3674 1.60577 10.2988 2.26268C10.2303 2.91959 10.1312 3.66607 10.0788 3.92154C9.99271 4.34068 10.1636 4.38602 11.8295 4.38602H13.6756V5.27794C13.6756 5.7685 13.7308 6.724 13.7983 7.40129L13.9211 8.63271H11.7156H9.51021L8.96626 13.2398C8.66709 15.7737 8.48128 18.1025 8.55336 18.4148C8.69383 19.0236 9.39619 19.3931 10 19.1759C10.4673 19.0078 10.5883 19.4333 10.5883 21.2439C10.5883 22.3695 10.5182 22.6914 10.2506 22.7955C9.53989 23.0721 7.95494 23.1767 7.30797 22.9899V22.9899ZM38.1815 23.0526C36.4957 22.6442 35.6 21.6131 35.4045 19.8558C35.3372 19.2507 35.5465 16.7674 35.931 13.6093L36.5692 8.3673H34.8791H33.1891L33.7932 6.37666L34.3972 4.38602H35.6975C37.1359 4.38602 37.0845 4.45355 37.3132 2.26267C37.5469 0.0234403 37.4343 0.139325 39.3771 0.139325H41.1256L40.994 1.50363C40.9217 2.254 40.8128 3.20951 40.7521 3.62698L40.6417 4.38602H43.7404H46.8391L46.8457 3.7104C46.8408 3.01528 46.9086 3.05475 48.6686 4.78878C49.6821 5.84187 50.0346 6.46941 50.2242 6.73541C50.0517 6.89559 49.3558 7.66482 48.4947 8.34575C46.8143 9.67463 46.8103 9.66925 46.8173 9.06268L46.839 8.3673H43.5048H40.1706L39.6347 12.8131C39.34 15.2582 39.0986 17.5481 39.0984 17.9017C39.0979 18.782 39.6771 19.3184 40.4487 19.1524C41.0637 19.02 41.0759 19.0369 41.0759 20.0292C41.0759 20.5857 41.1284 21.402 41.1925 21.8433C41.2975 22.5654 41.2542 22.6601 40.7584 22.7912C39.7358 23.0617 38.6666 23.1701 38.1815 23.0526H38.1815Z" fill="#FFCC33"/>
</svg>
