<svg width="200" height="45" viewBox="0 0 200 45" fill="none" xmlns="http://www.w3.org/2000/svg">
<path d="M3.11035 10.6128H17.7734V14.4238H7.21191V21.7725H16.4575V25.5835H7.21191V35H3.11035V10.6128ZM24.917 14.4238H20.4395L21.5845 10.6128H29.0015V35H24.917V14.4238Z" fill="#FF0000"/>
<path d="M62.1104 11.6128H70.8604C71.7604 11.6128 72.6206 11.6755 73.4409 11.8008C74.2726 11.9261 75.0417 12.1483 75.748 12.4673C76.4544 12.7863 77.0981 13.2306 77.6792 13.8003C78.2603 14.37 78.7559 15.0991 79.166 15.9878C79.5762 16.8765 79.8895 17.9474 80.106 19.2007C80.3338 20.4539 80.4478 21.9237 80.4478 23.6099C80.4478 25.353 80.3452 26.874 80.1401 28.1729C79.9351 29.4603 79.6388 30.5654 79.2515 31.4883C78.8641 32.3997 78.3913 33.1517 77.833 33.7441C77.2747 34.3252 76.6367 34.7866 75.9189 35.1284C75.2126 35.4588 74.4321 35.6867 73.5776 35.812C72.7345 35.9373 71.8288 36 70.8604 36H62.1104V11.6128ZM69.7495 32.189C70.3306 32.189 70.8945 32.1776 71.4414 32.1548C71.9883 32.1206 72.4953 32.0181 72.9624 31.8472C73.4409 31.6763 73.8739 31.4199 74.2612 31.0781C74.66 30.7249 74.9961 30.2293 75.2695 29.5913C75.5544 28.9533 75.7708 28.1501 75.9189 27.1816C76.0785 26.2018 76.1582 24.9998 76.1582 23.5757C76.1582 22.2541 76.0841 21.1375 75.936 20.2261C75.7879 19.3032 75.5771 18.5399 75.3037 17.936C75.0303 17.3322 74.6999 16.8651 74.3125 16.5347C73.9365 16.1929 73.5093 15.9422 73.0308 15.7827C72.5522 15.6118 72.0339 15.5093 71.4756 15.4751C70.9287 15.4409 70.3534 15.4238 69.7495 15.4238H66.2119V32.189H69.7495ZM85.5234 11.6128H94.5981C95.2476 11.6128 95.8799 11.6584 96.4951 11.7495C97.1217 11.8293 97.7085 11.9774 98.2554 12.1938C98.8136 12.4103 99.3206 12.7065 99.7764 13.0825C100.232 13.4471 100.625 13.9199 100.956 14.501C101.297 15.082 101.559 15.777 101.742 16.5859C101.924 17.3949 102.015 18.3462 102.015 19.4399C102.015 20.1691 101.952 20.8242 101.827 21.4053C101.713 21.9749 101.554 22.4819 101.349 22.9263C101.155 23.3706 100.927 23.758 100.665 24.0884C100.414 24.4188 100.158 24.7036 99.896 24.9429C99.2694 25.4897 98.563 25.8714 97.7769 26.0879V26.1221L102.921 36H98.2383L93.6753 27.0449H89.625V36H85.5234V11.6128ZM94.564 23.1826C96.7059 23.1826 97.7769 21.8553 97.7769 19.2007C97.7769 18.5057 97.6971 17.9189 97.5376 17.4404C97.3895 16.9505 97.1673 16.5575 96.8711 16.2612C96.5863 15.965 96.2388 15.7542 95.8286 15.6289C95.4185 15.4922 94.9627 15.4238 94.4614 15.4238H89.625V23.1826H94.564ZM112.542 11.6128H117.977L125.958 36H121.429L119.378 29.3862H111.073L109.107 36H104.63L112.542 11.6128ZM118.25 25.7119L115.243 15.3896H115.174L112.167 25.7119H118.25ZM129.308 11.6128H143.971V15.4238H133.409V22.7725H142.655V26.5835H133.409V36H129.308V11.6128ZM152.687 15.3896H145.372V11.6128H164.137V15.3896H156.754V36H152.687V15.3896Z" fill="#FF0000"/>
<path d="M176.513 35.3018C177.079 34.7126 177.558 34.1966 177.948 33.7539C178.342 33.3112 178.661 32.9206 178.905 32.582C179.149 32.2402 179.327 31.9391 179.438 31.6787C179.548 31.415 179.604 31.1693 179.604 30.9414C179.604 30.7819 179.582 30.6419 179.54 30.5215C179.501 30.401 179.431 30.3018 179.33 30.2236C179.229 30.1423 179.091 30.082 178.915 30.043C178.743 30.0007 178.524 29.9795 178.261 29.9795C178.075 29.9795 177.891 29.9893 177.709 30.0088C177.53 30.0251 177.367 30.043 177.221 30.0625C177.048 30.0853 176.882 30.1113 176.723 30.1406V29.2422C176.882 29.1771 177.063 29.1169 177.265 29.0615C177.437 29.016 177.641 28.9753 177.875 28.9395C178.113 28.9004 178.375 28.8809 178.661 28.8809C179.058 28.8809 179.394 28.9232 179.667 29.0078C179.944 29.0892 180.167 29.2113 180.336 29.374C180.508 29.5368 180.632 29.7419 180.707 29.9893C180.782 30.2367 180.819 30.5231 180.819 30.8486C180.819 31.0993 180.777 31.3662 180.692 31.6494C180.608 31.9326 180.465 32.2402 180.263 32.5723C180.064 32.901 179.799 33.2591 179.467 33.6465C179.138 34.0306 178.729 34.4489 178.241 34.9014V34.9111H180.819V36H176.513V35.3018ZM184.984 36.1514C184.678 36.1514 184.4 36.1253 184.149 36.0732C183.902 36.0244 183.682 35.943 183.49 35.8291C183.298 35.7152 183.132 35.5654 182.992 35.3799C182.852 35.1911 182.737 34.96 182.646 34.6865C182.558 34.4131 182.491 34.0924 182.445 33.7246C182.403 33.3535 182.382 32.9287 182.382 32.4502C182.382 31.7308 182.431 31.14 182.528 30.6777C182.629 30.2155 182.785 29.8525 182.997 29.5889C183.209 29.3219 183.477 29.138 183.803 29.0371C184.132 28.9329 184.525 28.8809 184.984 28.8809C185.44 28.8809 185.832 28.9329 186.161 29.0371C186.49 29.138 186.758 29.3219 186.967 29.5889C187.178 29.8525 187.333 30.2155 187.431 30.6777C187.532 31.14 187.582 31.7308 187.582 32.4502C187.582 32.9287 187.559 33.3535 187.514 33.7246C187.471 34.0924 187.405 34.4131 187.313 34.6865C187.226 34.96 187.112 35.1911 186.972 35.3799C186.832 35.5654 186.666 35.7152 186.474 35.8291C186.282 35.943 186.062 36.0244 185.814 36.0732C185.567 36.1253 185.29 36.1514 184.984 36.1514ZM184.984 35.0723C185.261 35.0723 185.487 35.0202 185.663 34.916C185.839 34.8086 185.976 34.6475 186.073 34.4326C186.174 34.2178 186.243 33.946 186.278 33.6172C186.314 33.2884 186.332 32.8994 186.332 32.4502C186.332 32.001 186.314 31.6201 186.278 31.3076C186.243 30.9919 186.174 30.7363 186.073 30.541C185.976 30.3424 185.839 30.1992 185.663 30.1113C185.487 30.0234 185.261 29.9795 184.984 29.9795C184.708 29.9795 184.481 30.0234 184.306 30.1113C184.133 30.1992 183.996 30.3408 183.896 30.5361C183.798 30.7314 183.731 30.987 183.695 31.3027C183.66 31.6152 183.642 31.9977 183.642 32.4502C183.642 32.8994 183.66 33.29 183.695 33.6221C183.731 33.9508 183.798 34.2227 183.896 34.4375C183.996 34.6523 184.133 34.8118 184.306 34.916C184.481 35.0202 184.708 35.0723 184.984 35.0723ZM188.856 35.3018C189.423 34.7126 189.901 34.1966 190.292 33.7539C190.686 33.3112 191.005 32.9206 191.249 32.582C191.493 32.2402 191.671 31.9391 191.781 31.6787C191.892 31.415 191.947 31.1693 191.947 30.9414C191.947 30.7819 191.926 30.6419 191.884 30.5215C191.845 30.401 191.775 30.3018 191.674 30.2236C191.573 30.1423 191.435 30.082 191.259 30.043C191.086 30.0007 190.868 29.9795 190.604 29.9795C190.419 29.9795 190.235 29.9893 190.053 30.0088C189.874 30.0251 189.711 30.043 189.564 30.0625C189.392 30.0853 189.226 30.1113 189.066 30.1406V29.2422C189.226 29.1771 189.407 29.1169 189.608 29.0615C189.781 29.016 189.984 28.9753 190.219 28.9395C190.456 28.9004 190.718 28.8809 191.005 28.8809C191.402 28.8809 191.737 28.9232 192.011 29.0078C192.287 29.0892 192.51 29.2113 192.68 29.374C192.852 29.5368 192.976 29.7419 193.051 29.9893C193.126 30.2367 193.163 30.5231 193.163 30.8486C193.163 31.0993 193.121 31.3662 193.036 31.6494C192.951 31.9326 192.808 32.2402 192.606 32.5723C192.408 32.901 192.143 33.2591 191.811 33.6465C191.482 34.0306 191.073 34.4489 190.585 34.9014V34.9111H193.163V36H188.856V35.3018ZM194.481 35.3018C195.048 34.7126 195.526 34.1966 195.917 33.7539C196.311 33.3112 196.63 32.9206 196.874 32.582C197.118 32.2402 197.296 31.9391 197.406 31.6787C197.517 31.415 197.572 31.1693 197.572 30.9414C197.572 30.7819 197.551 30.6419 197.509 30.5215C197.47 30.401 197.4 30.3018 197.299 30.2236C197.198 30.1423 197.06 30.082 196.884 30.043C196.711 30.0007 196.493 29.9795 196.229 29.9795C196.044 29.9795 195.86 29.9893 195.678 30.0088C195.499 30.0251 195.336 30.043 195.189 30.0625C195.017 30.0853 194.851 30.1113 194.691 30.1406V29.2422C194.851 29.1771 195.032 29.1169 195.233 29.0615C195.406 29.016 195.609 28.9753 195.844 28.9395C196.081 28.9004 196.343 28.8809 196.63 28.8809C197.027 28.8809 197.362 28.9232 197.636 29.0078C197.912 29.0892 198.135 29.2113 198.305 29.374C198.477 29.5368 198.601 29.7419 198.676 29.9893C198.751 30.2367 198.788 30.5231 198.788 30.8486C198.788 31.0993 198.746 31.3662 198.661 31.6494C198.576 31.9326 198.433 32.2402 198.231 32.5723C198.033 32.901 197.768 33.2591 197.436 33.6465C197.107 34.0306 196.698 34.4489 196.21 34.9014V34.9111H198.788V36H194.481V35.3018Z" fill="white"/>
<path d="M37.5 37H33L45 10H50L37.5 37Z" fill="white" stroke="white"/>
<path d="M46.5 37H42L54 10H59L46.5 37Z" fill="white" stroke="white"/>
<path d="M169.5 37H165L177 10H182L169.5 37Z" fill="white" stroke="white"/>
</svg>
