<svg width="70" height="45" viewBox="0 0 70 45" fill="none" xmlns="http://www.w3.org/2000/svg">
<rect width="70" height="45" fill="black"/>
<path d="M24.9667 32.9644C24.8215 31.7331 23.7001 16.799 23.7001 16.0978C23.7001 15.5388 23.7758 15.5132 25.428 15.5132H27.1559L27.2528 16.3758C27.3061 16.8502 27.4482 19.5674 27.5687 22.4141C27.6891 25.2607 27.8278 27.646 27.8769 27.7147C28.0257 27.923 28.2007 27.3944 29.9873 21.3423L31.7079 15.5133L33.4841 15.5133L35.2602 15.5132L35.3585 16.3758C35.4126 16.8502 35.5479 19.0897 35.6592 21.3524C35.9079 26.4066 36.0308 27.7697 36.2231 27.6062C36.305 27.5366 37.1419 24.7872 38.083 21.4964L39.7941 15.5132H41.5856H43.3771L42.9327 16.9066C42.6882 17.673 41.3743 21.7936 40.0129 26.0636L37.5376 33.827H35.6512H33.7647L33.629 32.0355C33.0743 24.7132 32.84 22.3148 32.6725 22.2444C32.5665 22.1999 31.6549 24.7856 30.6467 27.9904L28.8136 33.8173L26.9409 33.8222L25.0683 33.8271L24.9667 32.9644Z" fill="#FFCC33"/>
<path d="M16.7536 33.8516C15.0615 33.3628 14.2451 32.1399 14.2451 30.0941C14.2451 29.2002 14.7022 24.9252 15.3003 20.2243L15.3932 19.4944H13.3624C11.2548 19.4944 10.3639 19.163 10.1199 18.2881C10.0539 18.0518 10 16.4947 10 14.8279V11.7973H11.2542H12.5085V13.5225V15.2477H14.2451C15.7379 15.2477 15.9817 15.1856 15.9817 14.805C15.9817 14.5615 16.0775 13.606 16.1945 12.6816L16.4073 11.001H18.2336C19.8806 11.001 20.0505 11.0466 19.9645 11.4655C19.9121 11.721 19.813 12.4675 19.7445 13.1244C19.6759 13.7813 19.5769 14.5278 19.5244 14.7832C19.4383 15.2024 19.6092 15.2477 21.2751 15.2477H23.1212V16.1396C23.1212 16.6302 23.1765 17.5857 23.244 18.263L23.3667 19.4944H21.1612H18.9558L18.4119 24.1015C18.1127 26.6354 17.9269 28.9642 17.999 29.2765C18.1394 29.8853 18.8418 30.2548 19.4457 30.0376C19.9129 29.8695 20.0339 30.295 20.0339 32.1056C20.0339 33.2312 19.9638 33.5531 19.6962 33.6572C18.9855 33.9337 17.4006 34.0384 16.7536 33.8516V33.8516ZM47.6271 33.9143C45.9413 33.5059 45.0456 32.4748 44.8501 30.7175C44.7828 30.1124 44.9921 27.6291 45.3766 24.471L46.0148 19.229H44.3248H42.6347L43.2388 17.2384L43.8428 15.2477H45.1431C46.5815 15.2477 46.5301 15.3152 46.7588 13.1244C46.9925 10.8851 46.8799 11.001 48.8228 11.001H50.5712L50.4397 12.3653C50.3673 13.1157 50.2584 14.0712 50.1977 14.4887L50.0874 15.2477H53.186H56.2847L56.2914 14.5721C56.2864 13.877 56.3542 13.9164 58.1143 15.6505C59.1277 16.7036 59.4802 17.3311 59.6698 17.5971C59.4973 17.7573 58.8015 18.5265 57.9404 19.2074C56.2599 20.5363 56.2559 20.5309 56.2629 19.9244L56.2846 19.229H52.9504H49.6163L49.0803 23.6747C48.7856 26.1199 48.5442 28.4098 48.544 28.7633C48.5435 29.6437 49.1227 30.1801 49.8944 30.0141C50.5094 29.8817 50.5215 29.8986 50.5215 30.8909C50.5215 31.4474 50.574 32.2637 50.6381 32.705C50.7431 33.4271 50.6998 33.5218 50.204 33.6529C49.1814 33.9234 48.1122 34.0318 47.6271 33.9143H47.6271Z" fill="#FFCC33"/>
</svg>
